<?xml version="1.0" encoding="UTF-8"?>
<svg id="Layer_2" xmlns="http://www.w3.org/2000/svg" version="1.1" viewBox="0 0 52.7 45">
  <!-- Generator: Adobe Illustrator 29.8.4, SVG Export Plug-In . SVG Version: 2.1.1 Build 6)  -->
  <defs>
    <style>
      .st0 {
        fill: #fff;
      }
    </style>
  </defs>
  <g id="Layer_1-2">
    <g>
      <path class="st0" d="M47.9,5.6c-3.9,1.2-7.6,2.6-11.3,4.3-.7.3,0,1.4.6,1.1,3.5-1.7,7.2-3.1,11-4.2.8-.2.4-1.4-.3-1.2h0Z"/>
      <path class="st0" d="M39.5,15.4c4.5-1.4,8.8-3.1,13-5.2.7-.4,0-1.4-.6-1.1-4.1,2-8.3,3.8-12.7,5.1-.8.2-.4,1.4.3,1.2h0Z"/>
      <path class="st0" d="M38.8,14.5c-.7,1.3-.7,3,.9,3.6.9.3,1.9.3,2.8,0,1.2-.2,3.9-1.2,3.2,1s-3.6,3.9-5.8,4.3c-2.4.4-4.4-1-6.7-.9-1.7,0-2.8,1.2-2.7,2.9,0,.9.3,1.7.5,2.5.2,1,.4,2,.5,3,.5,3.7-3.5,6.8-6.6,7.7-4.4,1.3-9.7,2.2-14.3,1.2-2.4-.5-4.7-1.5-6.2-3.5s-2.4-4.5-2.8-6.9c-1-4.9,0-10.1,2.9-14.3,1.3-2,3.2-4.3,5.6-5.2,2.6-1,5.4,0,7.8,1,1.9.8,4.7,2.4,6.8,1.3,2-1,3.5-3.7,4.4-5.6.6-1.2,1.1-2.5,2-3.6s2.5-2.2,3.9-1.8c.6.2.6.1.8.7,0,.3,0,.6,0,1,0,.8,0,1.6,0,2.4,0,1.6-.1,3.2-.2,4.8,0,.4.3.6.6.6.3,0,.6,0,.9,0,.8,0,.8-1.2,0-1.2-.3,0-.6,0-.9,0l.6.6c.1-1.5.2-3.1.2-4.6,0-1.2.2-2.6,0-3.8-.4-2.2-2.4-2.3-4.2-1.5-2.4,1-3.5,2.9-4.6,5.1s-3.1,6.4-6,5.8c-2.7-.6-5.1-2.2-7.9-2.7-2.5-.5-4.9,0-7,1.5C3.6,13.1,1,17.9.2,22.6s.2,10.7,3.4,14.8c3.1,4.1,8.4,4.4,12.9,4.1,2.7-.2,5.3-.6,7.9-1.2,2.1-.5,3.9-1.5,5.6-3,1.4-1.2,2.3-2.8,2.8-4.5.4-1.5,0-3.5-.5-5-.3-1.4-1.2-3.7,1-3.9,1.5-.1,3,.7,4.5.9,2.4.3,4.8-.5,6.7-2,1.5-1.1,3.8-3.8,2.2-5.8-.7-.9-1.9-.6-2.8-.4-1.3.3-5.3,1.2-3.9-1.5.4-.7-.7-1.3-1.1-.6h0Z"/>
      <path class="st0" d="M9.6,22.6c12.7-7.2,27.2-10.4,40.5-16.5"/>
      <path class="st0" d="M9.6,23.3c12.7-7.2,27.2-10.4,40.5-16.5"/>
      <path class="st0" d="M9.6,23.9c12.7-7.2,27.2-10.4,40.5-16.5"/>
      <path class="st0" d="M9.6,24.5c12.7-7.2,27.2-10.4,40.5-16.5"/>
      <path class="st0" d="M9.6,25.2c12.7-7.2,27.2-10.4,40.5-16.5"/>
      <path class="st0" d="M9.6,25.8c12.7-7.2,27.2-10.4,40.5-16.5"/>
      <path class="st0" d="M10.7,21.4c-.3-1.7,1.9-2.8,3.2-3.1,1.8-.4,2.8,1.4,3.1,2.9.3,1.4,0,3.1-1.1,4.1-.9.9-2.4,1.4-3.7,1.1-.8-.2-1.6-.7-1.8-1.5-.3-1.1-.2-2.3,0-3.4,0-.3-.3-.6-.6-.6s-.6.3-.6.6c-.1,1.2-.2,2.5.1,3.7.3,1.1,1.1,1.8,2.1,2.2,1.8.7,3.8.2,5.2-1,1.6-1.3,2-3.5,1.7-5.5s-1.9-4.2-4.1-4-5.2,2.1-4.7,4.7c.1.8,1.4.5,1.2-.3h0Z"/>
    </g>
  </g>
</svg>